<?xml version="1.0" encoding="UTF-8" standalone="no"?><!DOCTYPE svg PUBLIC "-//W3C//DTD SVG 1.1//EN" "http://www.w3.org/Graphics/SVG/1.1/DTD/svg11.dtd"><svg width="100%" height="100%" viewBox="0 0 7917 1667" version="1.1" xmlns="http://www.w3.org/2000/svg" xmlns:xlink="http://www.w3.org/1999/xlink" xml:space="preserve" xmlns:serif="http://www.serif.com/" style="fill-rule:evenodd;clip-rule:evenodd;stroke-linejoin:round;stroke-miterlimit:2;"><g id="surface1"><path d="M550.519,102.676c198.817,-78.825 430.407,-73.372 623.922,18.18c-55.14,-8.333 -111.23,-2.05 -165.814,7.129c-148.241,27.849 -289.119,97.233 -399.237,200.31c-105.585,103.238 -179.574,240.218 -200.469,386.767c-13.826,103.841 -1.014,212.761 45.831,307.276c48.268,99.169 133.237,180.501 235.647,222.477c98.681,41.536 213.15,41.08 313.107,4.004c149.975,-54.753 257.736,-202.588 270.057,-360.531c7.756,-103.516 -17.556,-213.639 -87.472,-293.034c-66.741,-77.718 -164.358,-120.524 -262.04,-144.889c-5.236,-95.833 40.153,-190.511 112.13,-252.832c39.973,-35.856 89.583,-58.708 140.878,-73.34l3.894,-1.335c146.851,70.052 271.628,185.58 351.132,327.409c68.116,120.752 103.638,259.896 100.12,398.503c-0.671,179.232 -68.017,356.689 -183.469,493.734c-109.168,130.696 -261.86,224.707 -428.279,262.353c-166.861,38.298 -346.387,21.777 -502.547,-48.763c-152.807,-67.887 -282.264,-185.905 -364.615,-331.071c-68.508,-120.638 -104.75,-259.733 -101.74,-398.503c0.328,-172.9 62.046,-344.466 169.807,-479.671c86.081,-107.959 200.273,-193.799 329.157,-244.173Z" style="fill:#e50000;fill-rule:nonzero;"/><path d="M1008.63,127.985c54.584,-9.179 110.674,-15.462 165.814,-7.129l7.919,1.335l-5.301,2.002c-51.295,14.632 -100.905,37.484 -140.878,73.34c-71.977,62.321 -117.366,156.999 -112.13,252.832c97.682,24.365 195.299,67.171 262.04,144.889c69.916,79.395 95.228,189.518 87.472,293.034c-12.321,157.943 -120.082,305.778 -270.057,360.531c-99.957,37.076 -214.426,37.532 -313.107,-4.004c-102.41,-41.976 -187.379,-123.308 -235.647,-222.477c-46.845,-94.515 -59.657,-203.435 -45.831,-307.276c20.895,-146.549 94.884,-283.529 200.469,-386.767c110.118,-103.077 250.996,-172.461 399.237,-200.31Z" style="fill:#fefefe;fill-rule:nonzero;"/></g><text x="1929.64px" y="1228.1px" style="font-family:'VodafoneRg-Regular', sans-serif;font-size:1200px;fill:#e60000;">mediathek</text></svg>